<svg width="20" height="20" viewBox="0 0 20 20" fill="none" xmlns="http://www.w3.org/2000/svg">
<path d="M16.6667 8.33334V5.66667C16.6667 4.26654 16.6667 3.56647 16.3942 3.0317C16.1545 2.56129 15.7721 2.17884 15.3017 1.93916C14.7669 1.66667 14.0668 1.66667 12.6667 1.66667H7.33337C5.93324 1.66667 5.23318 1.66667 4.6984 1.93916C4.22799 2.17884 3.84554 2.56129 3.60586 3.0317C3.33337 3.56647 3.33337 4.26654 3.33337 5.66667V14.3333C3.33337 15.7335 3.33337 16.4335 3.60586 16.9683C3.84554 17.4387 4.22799 17.8212 4.6984 18.0609C5.23318 18.3333 5.93324 18.3333 7.33337 18.3333H8.75004M10.8334 9.16667H6.66671M9.16671 12.5H6.66671M13.3334 5.83334H6.66671M16.0417 14.1667V12.7083C16.0417 11.9029 15.3888 11.25 14.5834 11.25C13.778 11.25 13.125 11.9029 13.125 12.7083V14.1667M13 17.5H16.1667C16.6334 17.5 16.8668 17.5 17.045 17.4092C17.2018 17.3293 17.3293 17.2018 17.4092 17.045C17.5 16.8667 17.5 16.6334 17.5 16.1667V15.5C17.5 15.0333 17.5 14.7999 17.4092 14.6217C17.3293 14.4649 17.2018 14.3374 17.045 14.2575C16.8668 14.1667 16.6334 14.1667 16.1667 14.1667H13C12.5333 14.1667 12.3 14.1667 12.1217 14.2575C11.9649 14.3374 11.8374 14.4649 11.7575 14.6217C11.6667 14.7999 11.6667 15.0333 11.6667 15.5V16.1667C11.6667 16.6334 11.6667 16.8667 11.7575 17.045C11.8374 17.2018 11.9649 17.3293 12.1217 17.4092C12.3 17.5 12.5333 17.5 13 17.5Z" stroke="#2D4ADA" stroke-width="1.66667" stroke-linecap="round" stroke-linejoin="round"/>
</svg>
