<svg width="400" height="400" viewBox="0 0 400 400" fill="none" xmlns="http://www.w3.org/2000/svg">
<path d="M355.104 310.205C379.9 310.205 400.001 330.307 400.001 355.104C400.001 379.9 379.9 400.001 355.104 400.001C330.307 400.001 310.205 379.9 310.205 355.104C310.205 330.306 330.306 310.205 355.104 310.205ZM44.8975 330.611C58.4222 330.611 69.3875 341.576 69.3877 355.101C69.3877 368.625 58.4224 379.591 44.8975 379.591C31.3728 379.591 20.4082 368.625 20.4082 355.101C20.4084 341.576 31.3729 330.612 44.8975 330.611ZM200 330.611C213.525 330.611 224.49 341.576 224.49 355.101C224.49 368.625 213.525 379.591 200 379.591C186.475 379.591 175.511 368.625 175.511 355.101C175.511 341.576 186.475 330.612 200 330.611ZM200.001 155.103C224.798 155.103 244.898 175.204 244.898 200.001C244.898 224.798 224.798 244.898 200.001 244.898C175.204 244.898 155.103 224.798 155.103 200.001C155.103 175.204 175.204 155.103 200.001 155.103ZM44.8975 175.509C58.4227 175.509 69.3875 186.473 69.3877 199.998C69.3877 213.523 58.4228 224.488 44.8975 224.488C31.3723 224.488 20.4082 213.523 20.4082 199.998C20.4084 186.473 31.3724 175.509 44.8975 175.509ZM355.103 175.509C368.627 175.509 379.593 186.473 379.593 199.998C379.593 213.523 368.627 224.488 355.103 224.488C341.578 224.488 330.613 213.523 330.613 199.998C330.613 186.473 341.578 175.509 355.103 175.509ZM44.8984 0C69.6946 0.00026028 89.7959 20.1022 89.7959 44.8984C89.7956 69.6945 69.6945 89.7956 44.8984 89.7959C20.1022 89.7959 0.000260314 69.6946 0 44.8984C0 20.102 20.102 0 44.8984 0ZM200 20.4102C213.525 20.4102 224.49 31.3755 224.49 44.9004C224.49 58.4251 213.525 69.3896 200 69.3896C186.475 69.3894 175.511 58.4249 175.511 44.9004C175.511 31.3756 186.475 20.4104 200 20.4102ZM355.103 20.4102C368.627 20.4102 379.593 31.3755 379.593 44.9004C379.593 58.4251 368.627 69.3896 355.103 69.3896C341.578 69.3894 330.614 58.4249 330.613 44.9004C330.613 31.3756 341.578 20.4104 355.103 20.4102Z" fill="#285EF9"/>
</svg>
