<svg width="16" height="16" viewBox="0 0 16 16" fill="none" xmlns="http://www.w3.org/2000/svg">
<path d="M13.6666 4.85182L7.99998 7.99997M7.99998 7.99997L2.33331 4.85182M7.99998 7.99997L8 14.3333M14 7.99998V5.29428C14 5.06585 14 4.95164 13.9663 4.84977C13.9366 4.75966 13.8879 4.67693 13.8236 4.60714C13.7509 4.52825 13.651 4.47278 13.4514 4.36185L8.51802 1.62111C8.32895 1.51607 8.23442 1.46355 8.1343 1.44296C8.0457 1.42473 7.95431 1.42473 7.8657 1.44296C7.76559 1.46355 7.67105 1.51607 7.48198 1.62111L2.54865 4.36185C2.34897 4.47278 2.24912 4.52825 2.17642 4.60714C2.11211 4.67694 2.06343 4.75966 2.03366 4.84977C2 4.95164 2 5.06585 2 5.29428V10.7057C2 10.9341 2 11.0483 2.03366 11.1502C2.06343 11.2403 2.11211 11.323 2.17642 11.3928C2.24912 11.4717 2.34897 11.5272 2.54865 11.6381L7.48198 14.3789C7.67105 14.4839 7.76559 14.5364 7.8657 14.557C7.95431 14.5752 8.0457 14.5752 8.1343 14.557C8.23442 14.5364 8.32895 14.4839 8.51802 14.3789L8.66667 14.2963M5 2.99998L11 6.33332M14.6667 14.3333L14 13.6667M14.6667 12C14.6667 13.1046 13.7712 14 12.6667 14C11.5621 14 10.6667 13.1046 10.6667 12C10.6667 10.8954 11.5621 9.99998 12.6667 9.99998C13.7712 9.99998 14.6667 10.8954 14.6667 12Z" stroke="#8693A6" stroke-width="1.33333" stroke-linecap="round" stroke-linejoin="round"/>
</svg>
