<svg width="20" height="20" viewBox="0 0 20 20" fill="none" xmlns="http://www.w3.org/2000/svg">
<path d="M17.0833 6.0649L9.99997 10.0001M9.99997 10.0001L2.91664 6.0649M9.99997 10.0001L10 17.9168M17.5 13.3822V6.61798C17.5 6.33245 17.5 6.18968 17.4579 6.06235C17.4207 5.9497 17.3599 5.8463 17.2795 5.75906C17.1886 5.66044 17.0638 5.59111 16.8142 5.45244L10.6475 2.02651C10.4112 1.89521 10.293 1.82957 10.1679 1.80383C10.0571 1.78105 9.94288 1.78105 9.83213 1.80383C9.70698 1.82957 9.58881 1.89521 9.35248 2.02651L3.18581 5.45244C2.93621 5.59111 2.8114 5.66044 2.72053 5.75906C2.64013 5.8463 2.57929 5.9497 2.54207 6.06235C2.5 6.18968 2.5 6.33245 2.5 6.61798V13.3822C2.5 13.6678 2.5 13.8105 2.54207 13.9379C2.57929 14.0505 2.64013 14.1539 2.72053 14.2412C2.8114 14.3398 2.93621 14.4091 3.18581 14.5478L9.35248 17.9737C9.58881 18.105 9.70698 18.1707 9.83213 18.1964C9.94288 18.2192 10.0571 18.2192 10.1679 18.1964C10.293 18.1707 10.4112 18.105 10.6475 17.9737L16.8142 14.5478C17.0638 14.4091 17.1886 14.3398 17.2795 14.2412C17.3599 14.1539 17.4207 14.0505 17.4579 13.9379C17.5 13.8105 17.5 13.6678 17.5 13.3822Z" stroke="#285EF9" stroke-width="1.66667" stroke-linecap="round" stroke-linejoin="round"/>
<path d="M13.75 7.91667L6.25 3.75" stroke="#285EF9" stroke-width="1.66667" stroke-linecap="round" stroke-linejoin="round"/>
</svg>
