<svg width="20" height="20" viewBox="0 0 20 20" fill="none" xmlns="http://www.w3.org/2000/svg">
<g clip-path="url(#clip0_915_1410)">
<path d="M17.6753 13.2413C17.1451 14.4951 16.3159 15.5998 15.2602 16.4591C14.2044 17.3183 12.9543 17.9058 11.619 18.1703C10.2837 18.4348 8.90398 18.3681 7.60042 17.9762C6.29685 17.5842 5.10915 16.8789 4.14114 15.9219C3.17314 14.9649 2.45431 13.7853 2.04749 12.4863C1.64068 11.1873 1.55826 9.8084 1.80746 8.47018C2.05666 7.13197 2.62988 5.87518 3.477 4.80968C4.32413 3.74418 5.41936 2.90242 6.66696 2.35799M17.6993 6.81063C18.0329 7.61601 18.2375 8.46746 18.307 9.33369C18.3241 9.54769 18.3327 9.65469 18.2902 9.75108C18.2547 9.83159 18.1844 9.90778 18.107 9.9496C18.0143 9.99966 17.8985 9.99966 17.667 9.99966H10.667C10.4336 9.99966 10.3169 9.99966 10.2278 9.95424C10.1494 9.91429 10.0857 9.85055 10.0457 9.77215C10.0003 9.68302 10.0003 9.56634 10.0003 9.33299V2.33299C10.0003 2.10143 10.0003 1.98566 10.0504 1.89297C10.0922 1.81556 10.1684 1.74523 10.2489 1.70973C10.3453 1.66724 10.4523 1.67582 10.6663 1.69298C11.5325 1.76242 12.3839 1.96706 13.1893 2.30066C14.2004 2.71945 15.119 3.33328 15.8929 4.1071C16.6667 4.88092 17.2805 5.79958 17.6993 6.81063Z" stroke="#2D4ADA" stroke-width="1.66667" stroke-linecap="round" stroke-linejoin="round"/>
</g>
<defs>
<clipPath id="clip0_915_1410">
<rect width="20" height="20" fill="white"/>
</clipPath>
</defs>
</svg>
