<svg width="16" height="16" viewBox="0 0 16 16" fill="none" xmlns="http://www.w3.org/2000/svg">
<path d="M3.33325 3.32634C3.33325 2.6789 3.33325 2.35518 3.46825 2.17673C3.58585 2.02127 3.7656 1.92507 3.96018 1.91345C4.18354 1.90012 4.45289 2.07968 4.9916 2.43882L12.002 7.1124C12.4471 7.40915 12.6697 7.55753 12.7472 7.74454C12.815 7.90804 12.815 8.0918 12.7472 8.2553C12.6697 8.44232 12.4471 8.59069 12.002 8.88744L4.9916 13.561C4.45289 13.9202 4.18354 14.0997 3.96018 14.0864C3.7656 14.0748 3.58585 13.9786 3.46825 13.8231C3.33325 13.6447 3.33325 13.3209 3.33325 12.6735V3.32634Z" stroke="#8693A6" stroke-width="1.33333" stroke-linecap="round" stroke-linejoin="round"/>
</svg>
