<svg width="40" height="40" viewBox="0 0 40 40" fill="none" xmlns="http://www.w3.org/2000/svg">
<path d="M21.6661 18.3332L5.83274 34.1665M23.3634 5.89729C25.3935 7.2443 27.3447 8.83234 29.168 10.6557C31.007 12.4947 32.6067 14.4639 33.9612 16.5128M15.4243 13.1601L10.6329 11.5629C10.0811 11.379 9.4733 11.496 9.02927 11.8718L4.26734 15.9011C3.29246 16.726 3.56943 18.2958 4.76774 18.7373L9.27973 20.3996M19.4678 30.5874L21.1301 35.0994C21.5716 36.2977 23.1414 36.5747 23.9663 35.5998L27.9957 30.8378C28.3714 30.3938 28.4884 29.786 28.3045 29.2342L26.7073 24.4428M32.247 3.78439L24.0696 5.1473C23.1866 5.29447 22.3767 5.72848 21.7651 6.38221L10.7433 18.1641C7.88641 21.2181 7.96588 25.9874 10.923 28.9444C13.88 31.9015 18.6493 31.981 21.7033 29.1241L33.4852 18.1023C34.1389 17.4907 34.5729 16.6808 34.7201 15.7978L36.083 7.62037C36.459 5.3643 34.5031 3.40838 32.247 3.78439Z" stroke="#2D4ADA" stroke-width="3.33333" stroke-linecap="round" stroke-linejoin="round"/>
</svg>
