<svg width="20" height="20" viewBox="0 0 20 20" fill="none" xmlns="http://www.w3.org/2000/svg">
<path d="M18.3334 8.75004L17.9381 5.58724C17.783 4.34672 17.7055 3.72645 17.4135 3.25904C17.1563 2.84722 16.7848 2.51922 16.3442 2.31508C15.8442 2.08337 15.2191 2.08337 13.969 2.08337H6.03121C4.78103 2.08337 4.15595 2.08337 3.65593 2.31508C3.21539 2.51922 2.84383 2.84722 2.58663 3.25904C2.2947 3.72645 2.21716 4.34671 2.0621 5.58724L1.66675 8.75004M4.58342 12.0834H15.4167M4.58342 12.0834C2.97258 12.0834 1.66675 10.7775 1.66675 9.16671C1.66675 7.55588 2.97258 6.25004 4.58341 6.25004H15.4167C17.0276 6.25004 18.3334 7.55588 18.3334 9.16671C18.3334 10.7775 17.0276 12.0834 15.4167 12.0834M4.58342 12.0834C2.97258 12.0834 1.66675 13.3892 1.66675 15C1.66675 16.6109 2.97258 17.9167 4.58342 17.9167H15.4167C17.0276 17.9167 18.3334 16.6109 18.3334 15C18.3334 13.3892 17.0276 12.0834 15.4167 12.0834M5.00008 9.16671H5.00842M5.00008 15H5.00842M10.0001 9.16671H15.0001M10.0001 15H15.0001" stroke="#2D4ADA" stroke-width="1.66667" stroke-linecap="round" stroke-linejoin="round"/>
</svg>
