<svg width="20" height="20" viewBox="0 0 20 20" fill="none" xmlns="http://www.w3.org/2000/svg">
<path d="M15.8333 7.49996C15.8333 10.7216 13.2217 13.3333 10 13.3333M15.8333 7.49996C15.8333 4.2783 13.2217 1.66663 10 1.66663M15.8333 7.49996H4.16667M10 13.3333C6.77834 13.3333 4.16667 10.7216 4.16667 7.49996M10 13.3333C11.4591 11.7359 12.289 9.66294 12.3341 7.49996C12.289 5.33698 11.4591 3.264 10 1.66663M10 13.3333C8.54092 11.7359 7.71249 9.66294 7.66743 7.49996C7.71249 5.33698 8.54092 3.264 10 1.66663M10 13.3333V15M4.16667 7.49996C4.16667 4.2783 6.77834 1.66663 10 1.66663M11.6667 16.6666C11.6667 17.5871 10.9205 18.3333 10 18.3333C9.07953 18.3333 8.33333 17.5871 8.33333 16.6666M11.6667 16.6666C11.6667 15.7462 10.9205 15 10 15M11.6667 16.6666H17.5M8.33333 16.6666C8.33333 15.7462 9.07953 15 10 15M8.33333 16.6666H2.5" stroke="#6750A4" stroke-width="1.66667" stroke-linecap="round" stroke-linejoin="round"/>
</svg>
