<svg width="16" height="16" viewBox="0 0 16 16" fill="none" xmlns="http://www.w3.org/2000/svg">
<g clip-path="url(#clip0_840_13378)">
<path d="M7.99992 10C9.10449 10 9.99992 9.10457 9.99992 8C9.99992 6.89543 9.10449 6 7.99992 6C6.89535 6 5.99992 6.89543 5.99992 8C5.99992 9.10457 6.89535 10 7.99992 10Z" stroke="#8693A6" stroke-width="1.33333" stroke-linecap="round" stroke-linejoin="round"/>
<path d="M12.4848 9.81818C12.4041 10.001 12.38 10.2038 12.4157 10.4004C12.4513 10.597 12.545 10.7784 12.6848 10.9212L12.7211 10.9576C12.8338 11.0702 12.9232 11.2038 12.9842 11.351C13.0452 11.4981 13.0766 11.6559 13.0766 11.8152C13.0766 11.9744 13.0452 12.1322 12.9842 12.2793C12.9232 12.4265 12.8338 12.5602 12.7211 12.6727C12.6086 12.7854 12.4749 12.8748 12.3277 12.9358C12.1806 12.9968 12.0228 13.0282 11.8636 13.0282C11.7043 13.0282 11.5465 12.9968 11.3994 12.9358C11.2522 12.8748 11.1186 12.7854 11.006 12.6727L10.9696 12.6364C10.8268 12.4966 10.6454 12.4029 10.4488 12.3673C10.2522 12.3316 10.0494 12.3557 9.86659 12.4364C9.68733 12.5132 9.53445 12.6408 9.42677 12.8034C9.31909 12.966 9.2613 13.1565 9.26052 13.3515V13.4545C9.26052 13.776 9.13282 14.0843 8.9055 14.3116C8.67819 14.539 8.36988 14.6667 8.0484 14.6667C7.72693 14.6667 7.41862 14.539 7.1913 14.3116C6.96399 14.0843 6.83628 13.776 6.83628 13.4545V13.4C6.83159 13.1994 6.76666 13.0048 6.64993 12.8416C6.53319 12.6784 6.37006 12.5541 6.18174 12.4849C5.99894 12.4042 5.79617 12.3801 5.59956 12.4158C5.40296 12.4514 5.22154 12.5451 5.07871 12.6849L5.04234 12.7212C4.92977 12.8339 4.79609 12.9233 4.64894 12.9843C4.50179 13.0453 4.34406 13.0767 4.18477 13.0767C4.02548 13.0767 3.86775 13.0453 3.7206 12.9843C3.57345 12.9233 3.43976 12.8339 3.32719 12.7212C3.21449 12.6086 3.12509 12.475 3.06409 12.3278C3.00309 12.1807 2.97169 12.0229 2.97169 11.8636C2.97169 11.7043 3.00309 11.5466 3.06409 11.3995C3.12509 11.2523 3.21449 11.1186 3.32719 11.0061L3.36356 10.9697C3.50327 10.8269 3.597 10.6454 3.63265 10.4488C3.6683 10.2522 3.64423 10.0495 3.56355 9.86667C3.48673 9.68742 3.35916 9.53454 3.19656 9.42686C3.03396 9.31917 2.84343 9.26139 2.6484 9.26061H2.54537C2.2239 9.26061 1.91559 9.1329 1.68827 8.90559C1.46096 8.67827 1.33325 8.36996 1.33325 8.04849C1.33325 7.72701 1.46096 7.41871 1.68827 7.19139C1.91559 6.96407 2.2239 6.83637 2.54537 6.83637H2.59992C2.80052 6.83167 2.99507 6.76674 3.15828 6.65001C3.32149 6.53328 3.44581 6.37015 3.51507 6.18182C3.59575 5.99902 3.61981 5.79625 3.58416 5.59965C3.54852 5.40304 3.45479 5.22163 3.31507 5.07879L3.27871 5.04243C3.16601 4.92985 3.0766 4.79617 3.0156 4.64902C2.9546 4.50187 2.92321 4.34414 2.92321 4.18485C2.92321 4.02556 2.9546 3.86783 3.0156 3.72068C3.0766 3.57353 3.16601 3.43985 3.27871 3.32728C3.39128 3.21458 3.52496 3.12517 3.67211 3.06417C3.81926 3.00317 3.97699 2.97178 4.13628 2.97178C4.29557 2.97178 4.4533 3.00317 4.60045 3.06417C4.7476 3.12517 4.88128 3.21458 4.99386 3.32728L5.03022 3.36364C5.17306 3.50336 5.35447 3.59708 5.55108 3.63273C5.74768 3.66838 5.95045 3.64431 6.13325 3.56364H6.18174C6.36099 3.48681 6.51387 3.35925 6.62155 3.19665C6.72923 3.03405 6.78702 2.84351 6.7878 2.64849V2.54546C6.7878 2.22398 6.9155 1.91567 7.14282 1.68836C7.37014 1.46104 7.67844 1.33334 7.99992 1.33334C8.32139 1.33334 8.6297 1.46104 8.85702 1.68836C9.08433 1.91567 9.21204 2.22398 9.21204 2.54546V2.6C9.21282 2.79502 9.27061 2.98556 9.37829 3.14816C9.48597 3.31076 9.63885 3.43833 9.8181 3.51515C10.0009 3.59583 10.2037 3.6199 10.4003 3.58425C10.5969 3.5486 10.7783 3.45487 10.9211 3.31515L10.9575 3.27879C11.0701 3.16609 11.2038 3.07669 11.3509 3.01569C11.4981 2.95469 11.6558 2.92329 11.8151 2.92329C11.9744 2.92329 12.1321 2.95469 12.2792 3.01569C12.4264 3.07669 12.5601 3.16609 12.6726 3.27879C12.7853 3.39136 12.8748 3.52505 12.9357 3.6722C12.9967 3.81935 13.0281 3.97707 13.0281 4.13637C13.0281 4.29566 12.9967 4.45339 12.9357 4.60054C12.8748 4.74769 12.7853 4.88137 12.6726 4.99394L12.6363 5.03031C12.4966 5.17314 12.4028 5.35456 12.3672 5.55116C12.3315 5.74776 12.3556 5.95054 12.4363 6.13334V6.18182C12.5131 6.36108 12.6407 6.51395 12.8033 6.62163C12.9659 6.72932 13.1564 6.7871 13.3514 6.78788H13.4545C13.7759 6.78788 14.0842 6.91559 14.3116 7.1429C14.5389 7.37022 14.6666 7.67853 14.6666 8C14.6666 8.32148 14.5389 8.62978 14.3116 8.8571C14.0842 9.08442 13.7759 9.21212 13.4545 9.21212H13.3999C13.2049 9.2129 13.0144 9.27069 12.8518 9.37837C12.6892 9.48605 12.5616 9.63893 12.4848 9.81818Z" stroke="#8693A6" stroke-width="1.33333" stroke-linecap="round" stroke-linejoin="round"/>
</g>
<defs>
<clipPath id="clip0_840_13378">
<rect width="16" height="16" fill="white"/>
</clipPath>
</defs>
</svg>
