<svg width="20" height="20" viewBox="0 0 20 20" fill="none" xmlns="http://www.w3.org/2000/svg">
<path d="M10.0004 12.5C11.3812 12.5 12.5004 11.3807 12.5004 9.99999C12.5004 8.61928 11.3812 7.49999 10.0004 7.49999C8.61974 7.49999 7.50045 8.61928 7.50045 9.99999C7.50045 11.3807 8.61974 12.5 10.0004 12.5Z" stroke="#2D4ADA" stroke-width="1.66667" stroke-linecap="round" stroke-linejoin="round"/>
<path d="M7.74135 16.1426L8.22839 17.238C8.37317 17.564 8.60945 17.8411 8.90858 18.0355C9.2077 18.2299 9.55681 18.3334 9.91357 18.3333C10.2703 18.3334 10.6194 18.2299 10.9186 18.0355C11.2177 17.8411 11.454 17.564 11.5988 17.238L12.0858 16.1426C12.2592 15.7539 12.5508 15.4299 12.9191 15.2167C13.2898 15.0029 13.7186 14.9118 14.1441 14.9565L15.3358 15.0833C15.6905 15.1208 16.0485 15.0546 16.3664 14.8928C16.6842 14.7309 16.9483 14.4803 17.1265 14.1713C17.305 13.8625 17.3901 13.5086 17.3713 13.1524C17.3526 12.7962 17.2309 12.4532 17.021 12.1648L16.3154 11.1954C16.0642 10.8476 15.93 10.429 15.9321 9.99999C15.932 9.57215 16.0675 9.15528 16.3191 8.80925L17.0247 7.8398C17.2346 7.55145 17.3563 7.20838 17.375 6.85222C17.3938 6.49605 17.3087 6.14211 17.1302 5.83332C16.952 5.52435 16.6879 5.27373 16.3701 5.11185C16.0522 4.94996 15.6942 4.88377 15.3395 4.92129L14.1478 5.04814C13.7223 5.09283 13.2935 5.00176 12.9228 4.78795C12.5538 4.57353 12.2621 4.24779 12.0895 3.8574L11.5988 2.76203C11.454 2.43597 11.2177 2.15892 10.9186 1.96449C10.6194 1.77006 10.2703 1.6666 9.91357 1.66666C9.55681 1.6666 9.2077 1.77006 8.90858 1.96449C8.60945 2.15892 8.37317 2.43597 8.22839 2.76203L7.74135 3.8574C7.56879 4.24779 7.27708 4.57353 6.90802 4.78795C6.53736 5.00176 6.10858 5.09283 5.68302 5.04814L4.48765 4.92129C4.13292 4.88377 3.77493 4.94996 3.45708 5.11185C3.13922 5.27373 2.87516 5.52435 2.69691 5.83332C2.51842 6.14211 2.43339 6.49605 2.45213 6.85222C2.47087 7.20838 2.59257 7.55145 2.80246 7.8398L3.50802 8.80925C3.75964 9.15528 3.89513 9.57215 3.89506 9.99999C3.89513 10.4278 3.75964 10.8447 3.50802 11.1907L2.80246 12.1602C2.59257 12.4485 2.47087 12.7916 2.45213 13.1478C2.43339 13.5039 2.51842 13.8579 2.69691 14.1667C2.87534 14.4755 3.13943 14.726 3.45724 14.8878C3.77505 15.0497 4.13295 15.116 4.48765 15.0787L5.67931 14.9518C6.10487 14.9071 6.53366 14.9982 6.90431 15.212C7.27475 15.4258 7.56782 15.7517 7.74135 16.1426Z" stroke="#2D4ADA" stroke-width="1.66667" stroke-linecap="round" stroke-linejoin="round"/>
</svg>
