<svg width="16" height="16" viewBox="0 0 16 16" fill="none" xmlns="http://www.w3.org/2000/svg">
<g clip-path="url(#clip0_840_13193)">
<path d="M2.99992 14.6667V11.3333M2.99992 4.66668V1.33334M1.33325 3.00001H4.66659M1.33325 13H4.66659M8.66658 2.00001L7.51047 5.00592C7.32246 5.49474 7.22845 5.73915 7.08227 5.94473C6.95271 6.12694 6.79352 6.28614 6.61131 6.4157C6.40572 6.56188 6.16131 6.65588 5.67249 6.84389L2.66659 8.00001L5.67249 9.15613C6.16131 9.34414 6.40572 9.43814 6.61131 9.58432C6.79352 9.71388 6.95271 9.87308 7.08227 10.0553C7.22846 10.2609 7.32246 10.5053 7.51047 10.9941L8.66659 14L9.8227 10.9941C10.0107 10.5053 10.1047 10.2609 10.2509 10.0553C10.3805 9.87308 10.5397 9.71388 10.7219 9.58432C10.9274 9.43814 11.1719 9.34414 11.6607 9.15613L14.6666 8.00001L11.6607 6.84389C11.1719 6.65588 10.9274 6.56188 10.7219 6.4157C10.5397 6.28614 10.3805 6.12694 10.2509 5.94473C10.1047 5.73915 10.0107 5.49474 9.8227 5.00592L8.66658 2.00001Z" stroke="#8693A6" stroke-width="1.33333" stroke-linecap="round" stroke-linejoin="round"/>
</g>
<defs>
<clipPath id="clip0_840_13193">
<rect width="16" height="16" fill="white"/>
</clipPath>
</defs>
</svg>
