<svg width="132" height="24" viewBox="0 0 132 24" fill="none" xmlns="http://www.w3.org/2000/svg">
<path d="M21.3066 18.6123C22.7943 18.6125 24 19.819 24 21.3066C23.9998 22.7941 22.7941 23.9998 21.3066 24C19.819 24 18.6126 22.7943 18.6123 21.3066C18.6123 19.8188 19.8188 18.6123 21.3066 18.6123ZM2.69434 19.8369C3.50568 19.8371 4.16309 20.4953 4.16309 21.3066C4.1629 22.1179 3.50556 22.7752 2.69434 22.7754C1.88295 22.7754 1.22479 22.118 1.22461 21.3066C1.22461 20.4951 1.88284 19.8369 2.69434 19.8369ZM12 19.8369C12.8115 19.8369 13.4697 20.4951 13.4697 21.3066C13.4695 22.118 12.8114 22.7754 12 22.7754C11.1887 22.7753 10.5314 22.1179 10.5312 21.3066C10.5312 20.4952 11.1886 19.837 12 19.8369ZM12 9.30566C13.4878 9.30566 14.6943 10.5122 14.6943 12C14.6941 13.4876 13.4877 14.6934 12 14.6934C10.5123 14.6933 9.30689 13.4876 9.30664 12C9.30664 10.5122 10.5122 9.30569 12 9.30566ZM2.69434 10.5303C3.50571 10.5305 4.16309 11.1886 4.16309 12C4.1629 12.8112 3.50559 13.4686 2.69434 13.4688C1.88292 13.4688 1.22479 12.8113 1.22461 12C1.22461 11.1885 1.88281 10.5303 2.69434 10.5303ZM21.3066 10.5303C22.118 10.5304 22.7754 11.1886 22.7754 12C22.7752 12.8112 22.1179 13.4686 21.3066 13.4688C20.4953 13.4688 19.8371 12.8113 19.8369 12C19.8369 11.1885 20.4951 10.5303 21.3066 10.5303ZM2.69434 0C4.18191 0.000245014 5.3877 1.2067 5.3877 2.69434C5.38745 4.18176 4.18176 5.38745 2.69434 5.3877C1.2067 5.3877 0.00024772 4.18191 0 2.69434C0 1.20655 1.20655 0 2.69434 0ZM12 1.22461C12.8115 1.22461 13.4697 1.88284 13.4697 2.69434C13.4695 3.50567 12.8114 4.16309 12 4.16309C11.1887 4.16299 10.5314 3.50562 10.5312 2.69434C10.5312 1.8829 11.1886 1.2247 12 1.22461ZM21.3066 1.22461C22.118 1.22477 22.7754 1.88294 22.7754 2.69434C22.7752 3.50557 22.1179 4.16292 21.3066 4.16309C20.4953 4.16309 19.8371 3.50567 19.8369 2.69434C19.8369 1.88284 20.4951 1.22461 21.3066 1.22461Z" fill="#285EF9"/>
<path d="M99.5802 3C101.417 3 102.79 3.43775 103.696 4.3125C104.611 5.17925 105.068 6.31252 105.068 7.71191C105.067 8.31614 104.936 8.90036 104.674 9.46484C104.419 10.0295 104.042 10.5153 103.541 10.9209C103.048 11.3185 102.431 11.5808 101.692 11.708C102.916 11.7955 103.895 12.1928 104.626 12.9004C105.358 13.6002 105.724 14.6182 105.724 15.9541C105.724 16.9799 105.469 17.8743 104.96 18.6377C104.459 19.3931 103.744 19.9781 102.814 20.3916C101.891 20.7972 100.789 21 99.5089 21C98.6422 21 97.8232 20.8887 97.0519 20.666C96.2886 20.4434 95.6205 20.1017 95.048 19.6406C94.4754 19.1794 94.0377 18.5945 93.7355 17.8867C93.4413 17.171 93.3262 16.32 93.3898 15.334H96.5392C96.4994 16.2484 96.7419 16.94 97.2667 17.4092C97.7916 17.8784 98.551 18.1133 99.545 18.1133C100.078 18.1133 100.57 18.0301 101.024 17.8633C101.477 17.6963 101.839 17.4377 102.109 17.0879C102.388 16.7301 102.527 16.2724 102.527 15.7158C102.527 14.7934 102.237 14.1292 101.656 13.7236C101.084 13.3101 100.372 13.1035 99.5206 13.1035H97.7081L97.7198 10.3838H99.4376C100.034 10.3838 100.515 10.2725 100.881 10.0498C101.247 9.81919 101.513 9.5286 101.68 9.17871C101.855 8.82093 101.942 8.44343 101.943 8.0459C101.943 7.29044 101.708 6.73006 101.238 6.36426C100.777 5.99845 100.221 5.81543 99.5685 5.81543C98.8449 5.81548 98.2561 6.01357 97.8029 6.41113C97.3496 6.8008 97.1477 7.45747 97.1954 8.37988H93.9865C93.9865 7.18704 94.1893 6.19269 94.5948 5.39746C95.0004 4.60236 95.6165 4.00598 96.4435 3.6084C97.2704 3.20288 98.316 3.00005 99.5802 3ZM62.1798 15.2979C62.1798 16.0214 62.2468 16.5942 62.382 17.0156C62.5171 17.4291 62.72 17.7235 62.9904 17.8984C63.2687 18.0734 63.6112 18.1611 64.0167 18.1611C64.5573 18.1611 65.0463 17.994 65.4835 17.6602C65.9288 17.3262 66.2505 16.9402 66.4493 16.5029V7.67578H69.7423V20.7012H66.8673L66.6388 17.2207C66.5318 17.7735 66.3661 18.3016 66.1398 18.8047C65.8615 19.4408 65.4397 19.9616 64.8751 20.3672C64.3105 20.7648 63.5548 20.9639 62.6085 20.9639C61.4556 20.9638 60.545 20.5742 59.8771 19.7949C59.2092 19.0076 58.8751 17.8462 58.8751 16.3115V7.67578H62.1798V15.2979ZM77.338 7.4502C78.2286 7.4502 79.0315 7.57384 79.7472 7.82031C80.4629 8.06683 81.0516 8.49231 81.5128 9.09668C81.9819 9.70104 82.2801 10.5398 82.4073 11.6133L79.2345 11.6016C79.1391 11.1086 78.9881 10.7387 78.7814 10.4922C78.5826 10.2377 78.3514 10.067 78.089 9.97949C77.8346 9.89209 77.5646 9.84767 77.2784 9.84766C76.9604 9.84766 76.6735 9.89955 76.4191 10.0029C76.1727 10.0984 75.9819 10.2419 75.8468 10.4326C75.7118 10.6234 75.6437 10.8538 75.6437 11.124C75.6437 11.458 75.7399 11.7363 75.9308 11.959C76.1296 12.1816 76.4278 12.377 76.8253 12.5439C77.2308 12.703 77.7358 12.8738 78.34 13.0566C78.7853 13.1759 79.2627 13.3146 79.7716 13.4736C80.2805 13.6327 80.7617 13.8478 81.215 14.1182C81.6681 14.3806 82.0381 14.7382 82.3243 15.1914C82.6186 15.6367 82.7657 16.2179 82.7657 16.9336C82.7657 18.1819 82.2882 19.1557 81.3341 19.8555C80.3799 20.5552 79.0995 20.9052 77.4933 20.9053C76.4357 20.9053 75.513 20.7505 74.7257 20.4404C73.9384 20.1303 73.3177 19.6605 72.8644 19.0322C72.4193 18.3962 72.1729 17.5853 72.1251 16.5996H75.3224C75.4099 17.2513 75.6441 17.7244 76.0255 18.0186C76.4072 18.3048 76.9006 18.4482 77.505 18.4482C77.8707 18.4482 78.2086 18.4086 78.5187 18.3291C78.8288 18.2496 79.076 18.1147 79.2589 17.9238C79.4498 17.733 79.545 17.4697 79.545 17.1357C79.545 16.8814 79.4846 16.6746 79.3654 16.5156C79.2461 16.3488 79.0675 16.2099 78.8292 16.0986C78.5986 15.9793 78.3118 15.868 77.9698 15.7646C77.628 15.6613 77.2344 15.5452 76.7892 15.418C76.002 15.1874 75.2782 14.9137 74.6183 14.5957C73.9582 14.2697 73.429 13.8394 73.0314 13.3066C72.634 12.7739 72.4357 12.0782 72.4357 11.2197C72.4357 9.98712 72.8885 9.0522 73.795 8.41602C74.7016 7.7719 75.8828 7.4502 77.338 7.4502ZM89.0353 7.68652H91.9933V10.3584H89.0353V16.7168C89.0353 17.2256 89.1183 17.5795 89.2853 17.7783C89.4602 17.9771 89.7829 18.0762 90.2521 18.0762C90.6255 18.0762 90.9552 18.0724 91.2413 18.0645C91.5276 18.0565 91.7909 18.0405 92.0294 18.0166V20.6885C91.6875 20.7839 91.2497 20.8358 90.7169 20.8438C90.1842 20.8597 89.6595 20.8672 89.1427 20.8672C88.085 20.8672 87.2614 20.6012 86.673 20.0684C86.0846 19.5277 85.7902 18.7246 85.7902 17.6592L85.7667 11.4678C85.7668 11.1896 85.8385 10.9507 85.9816 10.752C86.1068 10.5781 86.2777 10.4561 86.4943 10.3857L86.59 10.3584H84.2277V7.68652H85.7911L86.423 3.95312H89.0353V7.68652ZM56.0753 7.41406C56.2344 7.41406 56.3938 7.4216 56.5529 7.4375C56.7198 7.45341 56.8671 7.48173 56.9943 7.52148V10.9805C56.7239 10.9009 56.4494 10.8491 56.171 10.8252C55.9007 10.7934 55.6383 10.7783 55.3839 10.7783C55.0102 10.7783 54.6441 10.8292 54.2863 10.9326C53.9285 11.028 53.6104 11.1791 53.3322 11.3857C53.0538 11.5845 52.8349 11.8355 52.6759 12.1377V20.7021H49.3722V7.68848H52.2706L52.4806 11.1338C52.5411 10.8358 52.6147 10.5459 52.7003 10.2646C52.8752 9.71617 53.1093 9.22713 53.4034 8.79785C53.7056 8.36851 54.0756 8.03069 54.5128 7.78418C54.9581 7.53769 55.479 7.4141 56.0753 7.41406ZM48.0363 6.41113H43.7062V20.7012H40.3536V7.66406C40.3536 7.27457 40.4255 6.98383 40.5685 6.79297C40.7116 6.59419 40.9306 6.46681 41.2247 6.41113H36.0001V3.35742H48.0363V6.41113ZM126.636 20.7012H123.093L121.916 16.6455H115.624L114.444 20.7012H110.914L116.365 3.35742H121.185L126.636 20.7012ZM131.96 20.7012H128.572V3.35742H131.96V20.7012ZM117.737 9.38086L116.412 13.9375H121.124L119.788 9.38086L118.834 5.67188H118.679L117.737 9.38086Z" fill="#232836"/>
</svg>
