<svg width="528" height="96" viewBox="0 0 528 96" fill="none" xmlns="http://www.w3.org/2000/svg">
<path d="M85.2246 74.4492C91.1759 74.4493 96 79.2733 96 85.2246C95.9999 91.1758 91.1758 95.9999 85.2246 96C79.2733 96 74.4493 91.1759 74.4492 85.2246C74.4492 79.2733 79.2733 74.4492 85.2246 74.4492ZM10.7754 79.3467C14.0214 79.3467 16.6533 81.9786 16.6533 85.2246C16.6533 88.4705 14.0213 91.1016 10.7754 91.1016C7.52951 91.1015 4.8985 88.4705 4.89844 85.2246C4.89844 81.9787 7.52947 79.3467 10.7754 79.3467ZM48 79.3467C51.246 79.3467 53.8779 81.9786 53.8779 85.2246C53.8779 88.4705 51.2459 91.1016 48 91.1016C44.7541 91.1016 42.1221 88.4705 42.1221 85.2246C42.1221 81.9786 44.754 79.3467 48 79.3467ZM48 37.2246C53.9513 37.2246 58.7754 42.0487 58.7754 48C58.7754 53.9513 53.9513 58.7754 48 58.7754C42.0487 58.7754 37.2246 53.9513 37.2246 48C37.2246 42.0487 42.0487 37.2246 48 37.2246ZM10.7754 42.1221C14.0215 42.1221 16.6533 44.754 16.6533 48C16.6533 51.246 14.0215 53.8779 10.7754 53.8779C7.52935 53.8779 4.89844 51.2459 4.89844 48C4.89844 44.7541 7.52935 42.1221 10.7754 42.1221ZM85.2246 42.1221C88.4705 42.1221 91.1016 44.7541 91.1016 48C91.1016 51.2459 88.4705 53.8779 85.2246 53.8779C81.9786 53.8779 79.3467 51.246 79.3467 48C79.3467 44.754 81.9786 42.1221 85.2246 42.1221ZM10.7754 0C16.7265 0 21.5507 4.82431 21.5508 10.7754C21.5508 16.7265 16.7265 21.5508 10.7754 21.5508C4.82431 21.5507 0 16.7265 0 10.7754C6.45538e-05 4.82435 4.82435 6.45558e-05 10.7754 0ZM48 4.89844C51.2459 4.89844 53.8779 7.52947 53.8779 10.7754C53.8779 14.0214 51.246 16.6533 48 16.6533C44.754 16.6533 42.1221 14.0214 42.1221 10.7754C42.1221 7.52947 44.7541 4.89844 48 4.89844ZM85.2246 4.89844C88.4705 4.8985 91.1015 7.52951 91.1016 10.7754C91.1016 14.0213 88.4705 16.6533 85.2246 16.6533C81.9786 16.6533 79.3467 14.0214 79.3467 10.7754C79.3467 7.52947 81.9787 4.89844 85.2246 4.89844Z" fill="white"/>
<path d="M398.322 12C405.67 12 411.157 13.7493 414.783 17.248C418.441 20.7152 420.27 25.2484 420.271 30.8467C420.271 33.264 419.746 35.6021 418.696 37.8604C417.678 40.1188 416.167 42.0594 414.163 43.6816C412.191 45.2721 409.726 46.3221 406.768 46.8311C411.666 47.181 415.578 48.7716 418.505 51.6025C421.431 54.4017 422.895 58.4734 422.895 63.8174C422.894 67.9206 421.877 71.4991 419.841 74.5527C417.837 77.5744 414.974 79.9124 411.253 81.5664C407.563 83.1887 403.157 84 398.036 84C394.569 84 391.292 83.5547 388.207 82.6641C385.153 81.7734 382.482 80.4054 380.191 78.5605C377.901 76.7156 376.151 74.3779 374.942 71.5469C373.765 68.6841 373.304 65.2803 373.559 61.3359H386.155C385.996 64.9937 386.966 67.761 389.065 69.6377C391.165 71.5144 394.203 72.4531 398.179 72.4531C400.31 72.4531 402.283 72.1192 404.096 71.4512C405.909 70.7832 407.356 69.7492 408.438 68.3496C409.551 66.9183 410.107 65.0896 410.107 62.8633C410.107 59.1734 408.946 56.5168 406.624 54.8945C404.334 53.2407 401.487 52.4131 398.084 52.4131H390.831L390.879 41.5352H397.75C400.136 41.5351 402.06 41.0898 403.523 40.1992C404.987 39.2768 406.052 38.1153 406.72 36.7158C407.42 35.2844 407.77 33.7731 407.77 32.1826C407.769 29.1609 406.831 26.9183 404.954 25.4551C403.109 23.992 400.883 23.2607 398.274 23.2607C395.38 23.2608 393.026 24.056 391.213 25.6465C389.4 27.2051 388.589 29.829 388.779 33.5186H375.944C375.944 28.7475 376.756 24.7716 378.378 21.5908C380 18.41 382.465 16.0241 385.773 14.4336C389.082 12.8113 393.265 12 398.322 12ZM248.716 61.1924C248.716 64.0867 248.987 66.3767 249.527 68.0625C250.068 69.7166 250.879 70.8939 251.961 71.5938C253.074 72.2934 254.442 72.6435 256.063 72.6436C258.226 72.6436 260.183 71.9756 261.933 70.6396C263.714 69.3037 265.003 67.7611 265.798 66.0117V30.7031H278.967V82.8066H267.468L266.556 68.8857C266.128 71.0964 265.462 73.2079 264.557 75.2197C263.443 77.7645 261.757 79.8484 259.499 81.4707C257.241 83.061 254.219 83.8564 250.434 83.8564C245.821 83.8564 242.179 82.2979 239.507 79.1807C236.835 76.0316 235.499 71.3871 235.499 65.248V30.7031H248.716V61.1924ZM309.352 29.7998C312.914 29.7998 316.127 30.2922 318.99 31.2783C321.853 32.2644 324.207 33.9664 326.052 36.3838C327.928 38.8013 329.121 42.1579 329.63 46.4521L316.938 46.4043C316.557 44.4322 315.952 42.9529 315.125 41.9668C314.33 40.9489 313.407 40.2649 312.357 39.915C311.34 39.5652 310.258 39.3897 309.113 39.3896C307.841 39.3896 306.696 39.5972 305.678 40.0107C304.692 40.3925 303.928 40.9651 303.388 41.7285C302.847 42.4918 302.576 43.4138 302.576 44.4951C302.576 45.831 302.958 46.9443 303.722 47.835C304.517 48.7256 305.709 49.5058 307.3 50.1738C308.922 50.81 310.942 51.493 313.359 52.2246C315.141 52.7017 317.049 53.2593 319.085 53.8955C321.121 54.5317 323.045 55.3902 324.858 56.4717C326.671 57.5213 328.151 58.9526 329.296 60.7656C330.473 62.5469 331.062 64.8696 331.062 67.7324C331.061 72.7262 329.153 76.6227 325.336 79.4219C321.519 82.2211 316.397 83.6211 309.972 83.6211C305.741 83.6211 302.051 83.0003 298.902 81.7598C295.753 80.5192 293.272 78.6427 291.459 76.1299C289.678 73.5853 288.692 70.3406 288.501 66.3965H301.288C301.638 69.0046 302.577 70.8973 304.104 72.0742C305.63 73.2192 307.602 73.792 310.02 73.792C311.483 73.792 312.835 73.6325 314.075 73.3145C315.316 72.9964 316.302 72.4557 317.033 71.6924C317.797 70.929 318.179 69.879 318.179 68.543C318.179 67.5253 317.94 66.6986 317.463 66.0625C316.986 65.3945 316.27 64.8369 315.315 64.3916C314.393 63.9146 313.248 63.4691 311.881 63.0557C310.513 62.6422 308.938 62.1817 307.157 61.6729C304.008 60.7504 301.113 59.6522 298.473 58.3799C295.833 57.0757 293.717 55.3577 292.127 53.2266C290.537 51.0954 289.741 48.3121 289.741 44.877C289.741 39.9466 291.554 36.2088 295.181 33.6641C298.807 31.0876 303.531 29.7998 309.352 29.7998ZM356.138 30.749H367.971V41.4365H356.138V66.8682C356.138 68.9037 356.472 70.319 357.14 71.1143C357.839 71.9095 359.128 72.3076 361.005 72.3076C362.5 72.3076 363.82 72.2916 364.965 72.2598C366.11 72.228 367.16 72.1648 368.114 72.0693V82.7568C366.746 83.1385 364.996 83.3451 362.865 83.377C360.734 83.4406 358.635 83.4727 356.567 83.4727C352.337 83.4727 349.044 82.4066 346.69 80.2754C344.337 78.1124 343.159 74.8999 343.159 70.6377L343.064 45.874C343.064 44.7609 343.35 43.8069 343.923 43.0117C344.46 42.2663 345.206 41.7576 346.162 41.4873L346.356 41.4365H336.909V30.749H343.161L345.688 15.8145H356.138V30.749ZM224.302 29.6553C224.938 29.6553 225.574 29.6874 226.21 29.751C226.878 29.8146 227.467 29.9259 227.976 30.085V43.9219C226.894 43.6038 225.797 43.3972 224.684 43.3018C223.602 43.1745 222.552 43.1104 221.534 43.1104C220.039 43.1104 218.576 43.3179 217.145 43.7314C215.713 44.1132 214.44 44.717 213.327 45.5439C212.214 46.3391 211.339 47.3412 210.703 48.5498V82.8086H197.486V30.7529H209.081L209.925 44.5195C210.166 43.3329 210.458 42.179 210.799 41.0586C211.499 38.8639 212.437 36.908 213.614 35.1904C214.823 33.4729 216.301 32.1208 218.051 31.1348C219.832 30.1487 221.916 29.6553 224.302 29.6553ZM192.144 25.6455H174.823V82.8066H161.415V30.6553C161.415 29.0969 161.702 27.9362 162.274 27.1729C162.847 26.3776 163.722 25.8682 164.898 25.6455H144V13.4307H192.144V25.6455ZM506.541 82.8066H492.37L487.663 66.584H462.495L457.777 82.8066H443.654L465.459 13.4307H484.735L506.541 82.8066ZM527.841 82.8066H514.29V13.4307H527.841V82.8066ZM470.946 37.5264L465.646 55.7529H484.498L479.153 37.5264L475.336 22.6875H474.716L470.946 37.5264Z" fill="white"/>
</svg>
