<svg width="16" height="16" viewBox="0 0 16 16" fill="none" xmlns="http://www.w3.org/2000/svg">
<path d="M14.6666 7.00002L14.3503 4.46978C14.2263 3.47737 14.1642 2.98115 13.9307 2.60722C13.7249 2.27777 13.4277 2.01536 13.0752 1.85205C12.6752 1.66669 12.1752 1.66669 11.175 1.66669H4.82482C3.82468 1.66669 3.32461 1.66669 2.9246 1.85205C2.57217 2.01536 2.27492 2.27777 2.06916 2.60722C1.83561 2.98115 1.77358 3.47736 1.64953 4.46978L1.33325 7.00002M3.66659 9.66669H12.3333M3.66659 9.66669C2.37792 9.66669 1.33325 8.62202 1.33325 7.33335C1.33325 6.04469 2.37792 5.00002 3.66659 5.00002H12.3333C13.6219 5.00002 14.6666 6.04469 14.6666 7.33335C14.6666 8.62202 13.6219 9.66669 12.3333 9.66669M3.66659 9.66669C2.37792 9.66669 1.33325 10.7114 1.33325 12C1.33325 13.2887 2.37792 14.3334 3.66659 14.3334H12.3333C13.6219 14.3334 14.6666 13.2887 14.6666 12C14.6666 10.7114 13.6219 9.66669 12.3333 9.66669M3.99992 7.33335H4.00659M3.99992 12H4.00659M7.99992 7.33335H11.9999M7.99992 12H11.9999" stroke="#8693A6" stroke-width="1.33333" stroke-linecap="round" stroke-linejoin="round"/>
</svg>
